<svg width="146" height="26" viewBox="0 0 146 26" fill="none" xmlns="http://www.w3.org/2000/svg">
<g id="LiteRead+">
<path id="Vector" d="M134.044 23.875L136.692 7.78406H140.783L138.124 23.875H134.044ZM129.01 17.8636L129.703 13.7954H145.794L145.101 17.8636H129.01Z" fill="url(#paint0_linear_443_10265)"/>
<path id="Vector_2" d="M114.264 25.4205C112.931 25.4205 111.783 25.0796 110.821 24.3977C109.867 23.7083 109.185 22.697 108.776 21.3636C108.374 20.0227 108.336 18.3788 108.662 16.4318C108.995 14.4318 109.594 12.769 110.458 11.4432C111.321 10.1099 112.344 9.11365 113.526 8.45456C114.708 7.78789 115.939 7.45456 117.219 7.45456C118.189 7.45456 118.973 7.62122 119.571 7.95456C120.177 8.28031 120.643 8.68941 120.969 9.18183C121.295 9.66668 121.522 10.144 121.651 10.6136H121.799L123.264 1.86365H128.094L124.23 25.1364H119.458L119.924 22.3409H119.719C119.416 22.8258 119.014 23.3068 118.514 23.7841C118.022 24.2538 117.424 24.644 116.719 24.9546C116.022 25.2652 115.204 25.4205 114.264 25.4205ZM116.401 21.5682C117.174 21.5682 117.871 21.3561 118.492 20.9318C119.113 20.5 119.636 19.8977 120.06 19.125C120.484 18.3523 120.78 17.447 120.946 16.4091C121.121 15.3712 121.124 14.4697 120.958 13.7046C120.791 12.9394 120.465 12.3485 119.98 11.9318C119.503 11.5152 118.871 11.3068 118.083 11.3068C117.287 11.3068 116.583 11.5227 115.969 11.9546C115.363 12.3864 114.859 12.9849 114.458 13.75C114.064 14.5152 113.783 15.4015 113.617 16.4091C113.45 17.4243 113.439 18.322 113.583 19.1023C113.727 19.875 114.033 20.4811 114.503 20.9205C114.973 21.3523 115.605 21.5682 116.401 21.5682Z" fill="url(#paint1_linear_443_10265)"/>
<path id="Vector_3" d="M95.5047 25.4658C94.3986 25.4658 93.4403 25.2726 92.6297 24.8863C91.8266 24.4923 91.2357 23.909 90.8569 23.1363C90.4781 22.3636 90.3835 21.4052 90.5728 20.2613C90.7395 19.2916 91.0539 18.481 91.516 17.8295C91.9857 17.1704 92.5577 16.6401 93.2319 16.2386C93.9062 15.837 94.6524 15.5302 95.4706 15.3181C96.2963 15.106 97.1486 14.962 98.0274 14.8863C99.0425 14.7802 99.8683 14.678 100.505 14.5795C101.149 14.481 101.63 14.3408 101.948 14.159C102.266 13.9696 102.459 13.6893 102.527 13.3181V13.2499C102.641 12.5378 102.508 11.9848 102.13 11.5908C101.758 11.1893 101.164 10.9886 100.346 10.9886C99.4819 10.9886 98.7471 11.178 98.141 11.5567C97.5425 11.9355 97.1145 12.4166 96.8569 12.9999L92.4478 12.6363C92.8418 11.5757 93.4365 10.659 94.2319 9.88629C95.035 9.10598 96.0009 8.5075 97.1297 8.09083C98.2585 7.66659 99.5236 7.45447 100.925 7.45447C101.895 7.45447 102.8 7.5681 103.641 7.79538C104.49 8.02265 105.221 8.37492 105.834 8.85219C106.455 9.32947 106.902 9.9431 107.175 10.6931C107.455 11.4355 107.512 12.3257 107.346 13.3636L105.38 25.1363H100.789L101.198 22.7158H101.061C100.69 23.2613 100.236 23.7423 99.6978 24.159C99.16 24.5681 98.5425 24.8901 97.8456 25.1249C97.1486 25.3522 96.3683 25.4658 95.5047 25.4658ZM97.4478 22.1249C98.1524 22.1249 98.8001 21.9848 99.391 21.7045C99.9895 21.4166 100.482 21.0302 100.868 20.5454C101.262 20.0605 101.512 19.5113 101.618 18.8976L101.914 17.0454C101.762 17.1439 101.543 17.231 101.255 17.3067C100.974 17.3825 100.668 17.4545 100.334 17.5226C100.008 17.5833 99.6789 17.6401 99.3456 17.6931C99.0122 17.7386 98.713 17.784 98.4478 17.8295C97.8645 17.9128 97.3418 18.0454 96.8797 18.2272C96.4175 18.409 96.0425 18.6552 95.7547 18.9658C95.4668 19.2689 95.2888 19.6476 95.2206 20.1022C95.1145 20.7613 95.2698 21.2651 95.6865 21.6136C96.1107 21.9545 96.6978 22.1249 97.4478 22.1249Z" fill="url(#paint2_linear_443_10265)"/>
<path id="Vector_4" d="M80.6057 25.4772C78.8178 25.4772 77.3368 25.1136 76.1625 24.3863C74.9883 23.6514 74.1625 22.6136 73.6852 21.2726C73.2155 19.9242 73.136 18.3295 73.4466 16.4886C73.7496 14.6931 74.3595 13.1173 75.2761 11.7613C76.2004 10.4052 77.3595 9.34841 78.7534 8.59083C80.1474 7.83326 81.7004 7.45447 83.4125 7.45447C84.564 7.45447 85.6057 7.64007 86.5375 8.01129C87.4769 8.37492 88.2572 8.92795 88.8784 9.67038C89.4996 10.4052 89.9239 11.3257 90.1511 12.4317C90.386 13.5378 90.3822 14.8333 90.1398 16.3181L89.9239 17.6476H75.1966L75.6625 14.6476H85.8443C85.958 13.9507 85.9125 13.3333 85.708 12.7954C85.5034 12.2575 85.1625 11.837 84.6852 11.534C84.208 11.2234 83.6208 11.0681 82.9239 11.0681C82.2117 11.0681 81.5451 11.2423 80.9239 11.5908C80.3027 11.9393 79.7799 12.3976 79.3557 12.9658C78.939 13.5264 78.6701 14.1363 78.5489 14.7954L78.0148 17.7726C77.8633 18.6893 77.8936 19.4507 78.1057 20.0567C78.3254 20.6628 78.7042 21.1173 79.2421 21.4204C79.7799 21.7158 80.4618 21.8636 81.2875 21.8636C81.8254 21.8636 82.3292 21.7878 82.7989 21.6363C83.2761 21.4848 83.7004 21.2613 84.0716 20.9658C84.4428 20.6628 84.7458 20.2878 84.9807 19.8408L89.4011 20.1363C88.992 21.212 88.3708 22.1514 87.5375 22.9545C86.7042 23.7499 85.7004 24.3711 84.5261 24.8181C83.3595 25.2575 82.0527 25.4772 80.6057 25.4772Z" fill="url(#paint3_linear_443_10265)"/>
<path id="Vector_5" d="M53.1613 25.1364L57.0249 1.86365H66.2067C67.9643 1.86365 69.4113 2.17425 70.5476 2.79547C71.6916 3.41668 72.4946 4.29925 72.9567 5.44319C73.4264 6.57956 73.5363 7.92047 73.2863 9.46592C73.0287 11.0114 72.4719 12.3371 71.6158 13.4432C70.7673 14.5493 69.6613 15.4015 68.2976 16C66.9416 16.5909 65.3696 16.8864 63.5817 16.8864H57.434L58.1158 12.9318H63.4567C64.3961 12.9318 65.1991 12.803 65.8658 12.5455C66.5325 12.2879 67.059 11.9015 67.4454 11.3864C67.8393 10.8712 68.0969 10.2311 68.2181 9.46592C68.3469 8.68562 68.3014 8.0341 68.0817 7.51138C67.862 6.98107 67.4643 6.57956 66.8885 6.30683C66.3128 6.02653 65.5552 5.88638 64.6158 5.88638H61.2976L58.0817 25.1364H53.1613ZM67.4794 14.5455L71.5135 25.1364H66.0817L62.1726 14.5455H67.4794Z" fill="url(#paint4_linear_443_10265)"/>
<path id="Vector_6" d="M43.1032 25.4772C41.3153 25.4772 39.8342 25.1136 38.66 24.3863C37.4858 23.6514 36.66 22.6136 36.1827 21.2726C35.713 19.9242 35.6335 18.3295 35.9441 16.4886C36.2471 14.6931 36.857 13.1173 37.7736 11.7613C38.6979 10.4052 39.857 9.34841 41.2509 8.59083C42.6449 7.83326 44.1979 7.45447 45.91 7.45447C47.0615 7.45447 48.1032 7.64007 49.035 8.01129C49.9744 8.37492 50.7547 8.92795 51.3759 9.67038C51.9971 10.4052 52.4214 11.3257 52.6486 12.4317C52.8835 13.5378 52.8797 14.8333 52.6373 16.3181L52.4214 17.6476H37.6941L38.16 14.6476H48.3418C48.4555 13.9507 48.41 13.3333 48.2055 12.7954C48.0009 12.2575 47.66 11.837 47.1827 11.534C46.7055 11.2234 46.1183 11.0681 45.4214 11.0681C44.7093 11.0681 44.0426 11.2423 43.4214 11.5908C42.8002 11.9393 42.2774 12.3976 41.8532 12.9658C41.4365 13.5264 41.1676 14.1363 41.0464 14.7954L40.5123 17.7726C40.3608 18.6893 40.3911 19.4507 40.6032 20.0567C40.8229 20.6628 41.2017 21.1173 41.7396 21.4204C42.2774 21.7158 42.9592 21.8636 43.785 21.8636C44.3229 21.8636 44.8267 21.7878 45.2964 21.6363C45.7736 21.4848 46.1979 21.2613 46.5691 20.9658C46.9403 20.6628 47.2433 20.2878 47.4782 19.8408L51.8986 20.1363C51.4896 21.212 50.8683 22.1514 50.035 22.9545C49.2017 23.7499 48.1979 24.3711 47.0236 24.8181C45.857 25.2575 44.5502 25.4772 43.1032 25.4772Z" fill="url(#paint5_linear_443_10265)"/>
<path id="Vector_7" d="M36.4173 7.68182L35.815 11.3182H25.2923L25.9059 7.68182H36.4173ZM28.9741 3.5H33.815L31.1104 19.7727C31.0347 20.2197 31.0461 20.5682 31.1445 20.8182C31.243 21.0606 31.4059 21.2311 31.6332 21.3295C31.868 21.428 32.1483 21.4773 32.4741 21.4773C32.7014 21.4773 32.9324 21.4583 33.1673 21.4205C33.4021 21.375 33.5801 21.3409 33.7014 21.3182L33.8832 24.9205C33.6104 25.0038 33.243 25.0947 32.7809 25.1932C32.3264 25.2917 31.7885 25.3523 31.1673 25.375C29.9854 25.4205 28.9854 25.2652 28.1673 24.9091C27.3491 24.5455 26.762 23.9886 26.4059 23.2386C26.0498 22.4886 25.9741 21.5455 26.1786 20.4091L28.9741 3.5Z" fill="url(#paint6_linear_443_10265)"/>
<path id="Vector_8" d="M16.7853 25.1363L19.6944 7.6818H24.5353L21.6262 25.1363H16.7853ZM22.6149 5.40907C21.8952 5.40907 21.3005 5.17043 20.8308 4.69316C20.3687 4.20831 20.1793 3.63255 20.2626 2.96589C20.3459 2.28407 20.6717 1.70831 21.2399 1.23862C21.8081 0.761342 22.452 0.522705 23.1717 0.522705C23.8914 0.522705 24.4785 0.761342 24.9331 1.23862C25.3876 1.70831 25.577 2.28407 25.5012 2.96589C25.4255 3.63255 25.1035 4.20831 24.5353 4.69316C23.9747 5.17043 23.3346 5.40907 22.6149 5.40907Z" fill="url(#paint7_linear_443_10265)"/>
<path id="Vector_9" d="M0 25.1364L3.86364 1.86365H8.78409L5.60227 21.0796H15.5795L14.8977 25.1364H0Z" fill="url(#paint8_linear_443_10265)"/>
</g>
<defs>
<linearGradient id="paint0_linear_443_10265" x1="-42.1989" y1="-13.3981" x2="150.699" y2="-41.6248" gradientUnits="userSpaceOnUse">
<stop/>
<stop offset="1" stop-color="white"/>
</linearGradient>
<linearGradient id="paint1_linear_443_10265" x1="-42.1989" y1="-13.3981" x2="150.699" y2="-41.6248" gradientUnits="userSpaceOnUse">
<stop/>
<stop offset="1" stop-color="white"/>
</linearGradient>
<linearGradient id="paint2_linear_443_10265" x1="-42.1989" y1="-13.3982" x2="150.699" y2="-41.6249" gradientUnits="userSpaceOnUse">
<stop/>
<stop offset="1" stop-color="white"/>
</linearGradient>
<linearGradient id="paint3_linear_443_10265" x1="-42.1989" y1="-13.3982" x2="150.699" y2="-41.6249" gradientUnits="userSpaceOnUse">
<stop/>
<stop offset="1" stop-color="white"/>
</linearGradient>
<linearGradient id="paint4_linear_443_10265" x1="-42.1989" y1="-13.3981" x2="150.699" y2="-41.6248" gradientUnits="userSpaceOnUse">
<stop/>
<stop offset="1" stop-color="white"/>
</linearGradient>
<linearGradient id="paint5_linear_443_10265" x1="-42.1989" y1="-13.3982" x2="150.699" y2="-41.6249" gradientUnits="userSpaceOnUse">
<stop/>
<stop offset="1" stop-color="white"/>
</linearGradient>
<linearGradient id="paint6_linear_443_10265" x1="-42.1989" y1="-13.3981" x2="150.699" y2="-41.6248" gradientUnits="userSpaceOnUse">
<stop/>
<stop offset="1" stop-color="white"/>
</linearGradient>
<linearGradient id="paint7_linear_443_10265" x1="-42.1989" y1="-13.3981" x2="150.699" y2="-41.6248" gradientUnits="userSpaceOnUse">
<stop/>
<stop offset="1" stop-color="white"/>
</linearGradient>
<linearGradient id="paint8_linear_443_10265" x1="-42.1989" y1="-13.398" x2="150.699" y2="-41.6247" gradientUnits="userSpaceOnUse">
<stop/>
<stop offset="1" stop-color="white"/>
</linearGradient>
</defs>
</svg>
